<svg xmlns="http://www.w3.org/2000/svg" xmlns:xlink="http://www.w3.org/1999/xlink" width="90" height="200" viewBox="0 0 90 200">
  <defs>
    <clipPath id="clip-path">
      <rect width="90" height="200" fill="none"/>
    </clipPath>
  </defs>
  <g id="Repeat_Grid_19" data-name="Repeat Grid 19" clip-path="url(#clip-path)">
    <g transform="translate(-1017 -2044)">
      <circle id="Ellipse_12" data-name="Ellipse 12" cx="4" cy="4" r="4" transform="translate(1017 2044)" fill="#fff"/>
    </g>
    <g transform="translate(-992 -2044)">
      <circle id="Ellipse_12-2" data-name="Ellipse 12" cx="4" cy="4" r="4" transform="translate(1017 2044)" fill="#fff"/>
    </g>
    <g transform="translate(-967 -2044)">
      <circle id="Ellipse_12-3" data-name="Ellipse 12" cx="4" cy="4" r="4" transform="translate(1017 2044)" fill="#fff"/>
    </g>
    <g transform="translate(-942 -2044)">
      <circle id="Ellipse_12-4" data-name="Ellipse 12" cx="4" cy="4" r="4" transform="translate(1017 2044)" fill="#fff"/>
    </g>
    <g transform="translate(-1017 -2020)">
      <circle id="Ellipse_12-5" data-name="Ellipse 12" cx="4" cy="4" r="4" transform="translate(1017 2044)" fill="#fff"/>
    </g>
    <g transform="translate(-992 -2020)">
      <circle id="Ellipse_12-6" data-name="Ellipse 12" cx="4" cy="4" r="4" transform="translate(1017 2044)" fill="#fff"/>
    </g>
    <g transform="translate(-967 -2020)">
      <circle id="Ellipse_12-7" data-name="Ellipse 12" cx="4" cy="4" r="4" transform="translate(1017 2044)" fill="#fff"/>
    </g>
    <g transform="translate(-942 -2020)">
      <circle id="Ellipse_12-8" data-name="Ellipse 12" cx="4" cy="4" r="4" transform="translate(1017 2044)" fill="#fff"/>
    </g>
    <g transform="translate(-1017 -1996)">
      <circle id="Ellipse_12-9" data-name="Ellipse 12" cx="4" cy="4" r="4" transform="translate(1017 2044)" fill="#fff"/>
    </g>
    <g transform="translate(-992 -1996)">
      <circle id="Ellipse_12-10" data-name="Ellipse 12" cx="4" cy="4" r="4" transform="translate(1017 2044)" fill="#fff"/>
    </g>
    <g transform="translate(-967 -1996)">
      <circle id="Ellipse_12-11" data-name="Ellipse 12" cx="4" cy="4" r="4" transform="translate(1017 2044)" fill="#fff"/>
    </g>
    <g transform="translate(-942 -1996)">
      <circle id="Ellipse_12-12" data-name="Ellipse 12" cx="4" cy="4" r="4" transform="translate(1017 2044)" fill="#fff"/>
    </g>
    <g transform="translate(-1017 -1972)">
      <circle id="Ellipse_12-13" data-name="Ellipse 12" cx="4" cy="4" r="4" transform="translate(1017 2044)" fill="#fff"/>
    </g>
    <g transform="translate(-992 -1972)">
      <circle id="Ellipse_12-14" data-name="Ellipse 12" cx="4" cy="4" r="4" transform="translate(1017 2044)" fill="#fff"/>
    </g>
    <g transform="translate(-967 -1972)">
      <circle id="Ellipse_12-15" data-name="Ellipse 12" cx="4" cy="4" r="4" transform="translate(1017 2044)" fill="#fff"/>
    </g>
    <g transform="translate(-942 -1972)">
      <circle id="Ellipse_12-16" data-name="Ellipse 12" cx="4" cy="4" r="4" transform="translate(1017 2044)" fill="#fff"/>
    </g>
    <g transform="translate(-1017 -1948)">
      <circle id="Ellipse_12-17" data-name="Ellipse 12" cx="4" cy="4" r="4" transform="translate(1017 2044)" fill="#fff"/>
    </g>
    <g transform="translate(-992 -1948)">
      <circle id="Ellipse_12-18" data-name="Ellipse 12" cx="4" cy="4" r="4" transform="translate(1017 2044)" fill="#fff"/>
    </g>
    <g transform="translate(-967 -1948)">
      <circle id="Ellipse_12-19" data-name="Ellipse 12" cx="4" cy="4" r="4" transform="translate(1017 2044)" fill="#fff"/>
    </g>
    <g transform="translate(-942 -1948)">
      <circle id="Ellipse_12-20" data-name="Ellipse 12" cx="4" cy="4" r="4" transform="translate(1017 2044)" fill="#fff"/>
    </g>
    <g transform="translate(-1017 -1924)">
      <circle id="Ellipse_12-21" data-name="Ellipse 12" cx="4" cy="4" r="4" transform="translate(1017 2044)" fill="#fff"/>
    </g>
    <g transform="translate(-992 -1924)">
      <circle id="Ellipse_12-22" data-name="Ellipse 12" cx="4" cy="4" r="4" transform="translate(1017 2044)" fill="#fff"/>
    </g>
    <g transform="translate(-967 -1924)">
      <circle id="Ellipse_12-23" data-name="Ellipse 12" cx="4" cy="4" r="4" transform="translate(1017 2044)" fill="#fff"/>
    </g>
    <g transform="translate(-942 -1924)">
      <circle id="Ellipse_12-24" data-name="Ellipse 12" cx="4" cy="4" r="4" transform="translate(1017 2044)" fill="#fff"/>
    </g>
    <g transform="translate(-1017 -1900)">
      <circle id="Ellipse_12-25" data-name="Ellipse 12" cx="4" cy="4" r="4" transform="translate(1017 2044)" fill="#fff"/>
    </g>
    <g transform="translate(-992 -1900)">
      <circle id="Ellipse_12-26" data-name="Ellipse 12" cx="4" cy="4" r="4" transform="translate(1017 2044)" fill="#fff"/>
    </g>
    <g transform="translate(-967 -1900)">
      <circle id="Ellipse_12-27" data-name="Ellipse 12" cx="4" cy="4" r="4" transform="translate(1017 2044)" fill="#fff"/>
    </g>
    <g transform="translate(-942 -1900)">
      <circle id="Ellipse_12-28" data-name="Ellipse 12" cx="4" cy="4" r="4" transform="translate(1017 2044)" fill="#fff"/>
    </g>
    <g transform="translate(-1017 -1876)">
      <circle id="Ellipse_12-29" data-name="Ellipse 12" cx="4" cy="4" r="4" transform="translate(1017 2044)" fill="#fff"/>
    </g>
    <g transform="translate(-992 -1876)">
      <circle id="Ellipse_12-30" data-name="Ellipse 12" cx="4" cy="4" r="4" transform="translate(1017 2044)" fill="#fff"/>
    </g>
    <g transform="translate(-967 -1876)">
      <circle id="Ellipse_12-31" data-name="Ellipse 12" cx="4" cy="4" r="4" transform="translate(1017 2044)" fill="#fff"/>
    </g>
    <g transform="translate(-942 -1876)">
      <circle id="Ellipse_12-32" data-name="Ellipse 12" cx="4" cy="4" r="4" transform="translate(1017 2044)" fill="#fff"/>
    </g>
  </g>
</svg>
