<svg xmlns="http://www.w3.org/2000/svg" width="53" height="46.832" viewBox="0 0 53 46.832">
  <g id="XMLID_91_" transform="translate(0 -21.435)">
    <path id="XMLID_92_" d="M229.164,201.252h-2.158v-2.158a2.158,2.158,0,0,0-4.316,0v2.158h-2.158a2.158,2.158,0,1,0,0,4.316h2.158v2.158a2.158,2.158,0,0,0,4.316,0v-2.158h2.158a2.158,2.158,0,1,0,0-4.316Z" transform="translate(-186.954 -150.251)" fill="#00a88f"/>
    <path id="XMLID_93_" d="M72.457,136.936a15.094,15.094,0,0,0-12.128,6.109,16.547,16.547,0,0,0-19.957,16.191,2.158,2.158,0,0,0,2.158,2.158H60.6a15.1,15.1,0,1,0,11.856-24.459Zm0,25.9a10.791,10.791,0,1,1,10.791-10.791A10.72,10.72,0,0,1,72.457,162.834Z" transform="translate(-34.564 -98.883)" fill="#00a88f"/>
    <path id="XMLID_104_" d="M32.622,45.784a6.481,6.481,0,0,0,5.984,6.454,13.319,13.319,0,0,1,0-12.908A6.481,6.481,0,0,0,32.622,45.784Z" transform="translate(-27.928 -15.32)" fill="#00a88f"/>
    <path id="XMLID_105_" d="M13.451,159.422A11.168,11.168,0,0,0,0,170.354a2.158,2.158,0,0,0,2.158,2.158h.147A20.96,20.96,0,0,1,13.451,159.422Z" transform="translate(0 -117.932)" fill="#00a88f"/>
    <path id="XMLID_106_" d="M94.29,25.245a9.024,9.024,0,1,0,7.36-3.81A8.976,8.976,0,0,0,94.29,25.245Z" transform="translate(-79.296)" fill="#00a88f"/>
  </g>
</svg>
