<svg xmlns="http://www.w3.org/2000/svg" width="300.377" height="76" viewBox="0 0 300.377 76">
  <g id="Group_16060" data-name="Group 16060" transform="translate(-245.684 -25)">
    <path id="_-train_90433" data-name="-train_90433" d="M29.942,2C16.971,2,4,3.621,4,14.971V45.777a11.362,11.362,0,0,0,11.349,11.35L10.485,61.99v1.621h7.231L24.2,57.126H36.427l6.485,6.485H49.4V61.99l-4.864-4.864a11.362,11.362,0,0,0,11.35-11.35V14.971C55.883,3.621,44.275,2,29.942,2ZM15.349,50.641a4.864,4.864,0,1,1,4.864-4.864A4.858,4.858,0,0,1,15.349,50.641Zm11.35-22.7H10.485V14.971H26.7Zm6.485,0V14.971H49.4V27.942Zm11.349,22.7A4.864,4.864,0,1,1,49.4,45.777,4.858,4.858,0,0,1,44.534,50.641Z" transform="translate(241.684 37.326)" fill="#fff"/>
    <text id="Greenline" transform="translate(305.061 87)" fill="#fff" font-size="57" font-family="SegoeUI, Segoe UI"><tspan x="0" y="0">Greenline</tspan></text>
    <path id="Union_13" data-name="Union 13" d="M0,8.326H0ZM0,0H0Z" transform="translate(349.604 42.656)" fill="#fff" stroke="#fff" stroke-width="1"/>
  </g>
</svg>
