<svg id="eurostar-mono" xmlns="http://www.w3.org/2000/svg" width="179.19" height="53" viewBox="0 0 179.19 53">
  <path id="Path_78" data-name="Path 78" d="M0,0H179.19V53H0Z" fill="none" fill-rule="evenodd"/>
  <path id="Path_79" data-name="Path 79" d="M10.818,30.386a65.114,65.114,0,0,0,9.615-2.438c.159-1.052.378-2.012.575-3A20.88,20.88,0,0,1,22.2,21.035c.193-.5.683-1.611,1.005-2.3.3-.629.446-.872.749-1.428a35.872,35.872,0,0,1,3.789-5.465A36.574,36.574,0,0,1,34.724,5.53a26.186,26.186,0,0,1,8-3.524,21.986,21.986,0,0,1,3.644-.486,17.1,17.1,0,0,1,5.28.566,15.818,15.818,0,0,1,2.085.77,13.124,13.124,0,0,1,2.13,1.517,7.885,7.885,0,0,1,.9,1.074,8.465,8.465,0,0,1,1.159,3.994l.024.376a6.283,6.283,0,0,1-.09,1.054,7.059,7.059,0,0,1-.2.842,5.014,5.014,0,0,1-.571,1.3A7.3,7.3,0,0,1,56.14,14.4c-.922,1-1.891,1.923-1.688,1.933l1.4-.325q2.187-.472,4.4-.833a53.571,53.571,0,0,1,10.307-.486A94.66,94.66,0,0,1,86.02,16.883a114.906,114.906,0,0,0,19.552,2.6c2.764.132,5.326.1,7.574,0a56.954,56.954,0,0,0,7.753-.77,35.817,35.817,0,0,0,4.414-1.059A26.906,26.906,0,0,0,128.7,16.2q.523-.277,1.071-.609a35.737,35.737,0,0,0,4.669-3.141,35.207,35.207,0,0,1-3.178,2.284c.974-.618,1.973-1.321,3.006-2.121l.179-.163a2.3,2.3,0,0,1,.577.653l.1.144a.712.712,0,0,1-.293.39,67.917,67.917,0,0,1-7.705,6.15c-5.581,3.618-9.3,5-13.79,5.867a50.87,50.87,0,0,1-15.231.113A113.993,113.993,0,0,1,84.282,22.93,105.645,105.645,0,0,0,72.01,20.41a58.062,58.062,0,0,0-14.783-.1l1.439-.231a49.215,49.215,0,0,0-8.434,2.017c-4.82,1.481-12.4,4.362-20.191,6.873l-.117,1.728a14.556,14.556,0,0,0,.434,4.516c.155.568.309,1.064.464,1.5q.44-.02.876-.082a48.791,48.791,0,0,0,6.5-1.377,42.885,42.885,0,0,0,4.179-1.356c1.613-.6,3.8-1.351,5.372-2.024,1.314-.561,3.745-1.569,5.441-2.309l.864-.383c.068-.048.111.068.3.327l.372.474c.213.231.291.337.259.364l-1.169.869-.81.588C43.98,38.484,39,40.3,38.019,40.777a22.437,22.437,0,0,1-6.6,1.7,17.282,17.282,0,0,1-4.366-.12,6.622,6.622,0,0,1-4.261-2,5.327,5.327,0,0,1-.516-.667,9.837,9.837,0,0,1-1.686-4.162c-.143-.77-.249-1.274-.319-1.974a16.524,16.524,0,0,1-.072-1.723,66.421,66.421,0,0,1-7.829,1.524,14.26,14.26,0,0,1-2.11.137,8.688,8.688,0,0,1-3.1-.566A1.9,1.9,0,0,1,6.1,31.9a.961.961,0,0,1,.193-1.1c.106-.113.048.381,4.532-.407l-.006-.005Zm26.076-8.7L38.579,21A55.249,55.249,0,0,0,47.15,17.03a8.842,8.842,0,0,0,3.305-3.361,3.474,3.474,0,0,0,.378-1.54,4.286,4.286,0,0,0-.006-.611l-.088-.665a8.706,8.706,0,0,0-.434-1.758,7.536,7.536,0,0,0-1.989-3.077,2.582,2.582,0,0,0-1.115-.53,1.9,1.9,0,0,0-.681.12c-2.357.612-4.559,2.557-6.487,4.388a44.74,44.74,0,0,0-5.587,7.32,28.8,28.8,0,0,0-2.6,5.263l-.522,1.317c1.641-.6,3.528-1.353,5.662-2.231l-.09.026ZM59.968,41.485V30.954h8.271v1.389H61.888v2.882h5.565v1.416H61.888V40.1h6.72v1.389H59.966ZM71.86,37.379V30.954h1.917v6.257c0,1.721.866,3.029,3.568,3.029,2.588,0,3.355-1.221,3.355-3.029V30.954h1.913v6.423c0,2.46-1.619,4.273-5.463,4.273-3.767,0-5.29-1.981-5.29-4.273Zm14.463,4.105V30.954h3.542c3.373,0,5.195.99,5.195,3.055,0,1.244-.86,2.292-2.489,2.865l3.843,4.441v.168h-2.12l-3.373-3.96H88.236v3.96H86.321Zm5.185-5.354a2.3,2.3,0,0,0,1.627-2.061c0-1.3-.856-1.728-3.271-1.728H88.236v3.789Zm6.23.086c0-2.8,2.218-5.429,6.451-5.429,4.211,0,6.425,2.629,6.425,5.429s-2.214,5.433-6.423,5.433C99.956,41.649,97.738,39.02,97.738,36.216Zm10.859,0c0-2.294-1.529-4.02-4.406-4.02-2.9,0-4.432,1.728-4.432,4.02s1.529,4.023,4.432,4.023C107.067,40.239,108.6,38.515,108.6,36.216Zm4.307,4.778V39.5h.2a11.792,11.792,0,0,0,3.839.739c2.216,0,3.273-.571,3.273-1.562s-.91-1.428-2.216-1.8l-2.015-.573c-1.8-.523-2.684-1.411-2.684-2.711,0-1.812,2.019-2.8,4.9-2.8a11.931,11.931,0,0,1,3.665.585v1.394h-.2a12.993,12.993,0,0,0-3.47-.568c-1.87,0-2.977.313-2.977,1.305,0,.907.836,1.2,1.82,1.476l1.921.588c1.82.525,3.178,1.305,3.178,3.029,0,1.9-2.023,3.052-5.2,3.052a12.154,12.154,0,0,1-4.038-.655h0Zm15.685.488v-9.14h-4.41V30.953h10.664v1.389h-4.336v9.14h-1.917Zm6.325,0v-.168l4.8-10.361h2.409l4.506,10.361v.168H144.61l-1.179-2.805H137.99l-1.258,2.805Zm7.926-4.187-2.071-4.867L138.6,37.294Zm6.644,4.188V30.953h3.546c3.375,0,5.191.989,5.191,3.053,0,1.245-.86,2.292-2.483,2.865l3.843,4.442v.166h-2.118l-3.373-3.96H151.4v3.96h-1.921Zm5.195-5.354a2.294,2.294,0,0,0,1.621-2.06c0-1.305-.858-1.728-3.271-1.728H151.4v3.789h3.275Z" transform="translate(5.946 1.487)" fill="#8a9497"/>
</svg>
